# File created by Blade
# Date/Time:  Wed Apr 08 17:04:22 2015
# Frame Rate: 120.000 fps
#------------------------------------------------------
:FULLY-SPECIFIED
:DEGREES
1127
root 3.842647 35.923662 4.079662 -143.211982 -79.802164 171.694367
Spine -30.981379 -15.061844 -1.267866
Head 55.379431 -15.239562 -19.428328
LeftShoulder 13.910718 0.657976 27.063420
LeftArm 105.125866 41.838007 -37.247170
LeftForeArm -0.682653 -0.000000 93.366614
LeftHand -6.656950 -0.000000 -21.424115
LeftHandThumb1 -26.253704 0.000000 33.147579
RightShoulder -12.555080 -67.931246 -19.404735
RightArm 43.271368 -4.376584 76.737013
RightForeArm 71.364660 -0.000000 110.330549
RightHand 11.148323 0.000000 4.371486
RightHandThumb1 -24.326973 -0.000000 -32.862282
LeftUpLeg -32.868365 10.979465 -4.271952
LeftLeg 20.526750 -0.000000 -0.000000
LeftFoot -17.773118 10.710865 -15.735815
LeftToeBase 8.891614 -0.000000 -0.000000
RightUpLeg -35.318717 -5.351676 -9.893360
RightLeg 17.378837 -0.000000 -0.000000
RightFoot -10.875747 3.374306 20.307791
RightToeBase 13.654734 -0.000000 -0.000000
1128
root 3.847983 35.924201 4.079337 -143.250131 -79.770069 171.748020
Spine -31.022720 -15.112577 -1.279212
Head 55.550586 -15.357469 -19.613913
LeftShoulder 13.892479 0.836929 27.029203
LeftArm 105.142497 41.723064 -37.248261
LeftForeArm -0.492009 -0.000000 93.395861
LeftHand -6.693893 0.000000 -21.337900
LeftHandThumb1 -26.253704 0.000000 33.147579
RightShoulder -12.113007 -67.723571 -19.855007
RightArm 43.214431 -3.411887 77.268989
RightForeArm 71.293285 0.000000 110.098726
RightHand 11.513693 -0.000000 2.478927
RightHandThumb1 -24.326973 -0.000000 -32.862282
LeftUpLeg -32.868983 11.010838 -4.287308
LeftLeg 20.485934 -0.000000 -0.000000
LeftFoot -17.768629 10.718830 -15.738180
LeftToeBase 8.892474 -0.000000 -0.000000
RightUpLeg -35.350346 -5.366175 -9.877236
RightLeg 17.371815 -0.000000 -0.000000
RightFoot -10.845350 3.400778 20.274225
RightToeBase 13.672546 -0.000000 -0.000000
1129
root 3.852318 35.924667 4.079984 -143.283083 -79.732974 171.781942
Spine -31.035813 -15.159945 -1.284661
Head 55.727141 -15.498929 -19.854023
LeftShoulder 13.858643 0.865056 27.013473
LeftArm 105.007547 41.777561 -37.385316
LeftForeArm -0.317138 -0.000000 93.475339
LeftHand -6.729133 -0.000000 -21.258149
LeftHandThumb1 -26.253704 0.000000 33.147579
RightShoulder -11.670346 -67.452449 -20.333722
RightArm 43.075962 -2.441938 77.833105
RightForeArm 70.949271 -0.000000 109.851130
RightHand 11.746220 -0.000000 0.298916
RightHandThumb1 -24.326973 -0.000000 -32.862282
LeftUpLeg -32.853448 11.044215 -4.306026
LeftLeg 20.443578 -0.000000 -0.000000
LeftFoot -17.758829 10.721684 -15.746483
LeftToeBase 8.900207 -0.000000 -0.000000
RightUpLeg -35.362362 -5.383306 -9.868986
RightLeg 17.358388 -0.000000 -0.000000
RightFoot -10.819752 3.442134 20.267836
RightToeBase 13.689135 -0.000000 -0.000000
1130
root 3.857632 35.924323 4.081570 -143.324299 -79.665183 171.841813
Spine -31.067018 -15.190156 -1.283060
Head 55.884347 -15.609402 -20.095182
LeftShoulder 13.782926 0.855621 27.012002
LeftArm 104.839456 41.875819 -37.549966
LeftForeArm -0.199858 -0.000000 93.588342
LeftHand -6.775273 -0.000000 -21.162414
LeftHandThumb1 -26.253704 0.000000 33.147579
RightShoulder -11.312587 -67.230107 -20.781573
RightArm 43.049064 -1.525035 78.398491
RightForeArm 70.315408 -0.000000 109.537935
RightHand 12.100922 0.000000 -2.606498
RightHandThumb1 -24.326973 -0.000000 -32.862282
LeftUpLeg -32.859331 11.087539 -4.336083
LeftLeg 20.415397 -0.000000 -0.000000
LeftFoot -17.771980 10.747500 -15.730257
LeftToeBase 8.969234 -0.000000 -0.000000
RightUpLeg -35.406511 -5.365300 -9.879585
RightLeg 17.353712 -0.000000 -0.000000
RightFoot -10.800577 3.473318 20.269261
RightToeBase 13.704126 -0.000000 -0.000000
1131
root 3.861598 35.924257 4.082155 -143.382697 -79.612398 171.906137
Spine -31.091455 -15.217795 -1.296418
Head 56.053347 -15.742269 -20.325947
LeftShoulder 13.743580 0.954995 27.032965
LeftArm 104.753657 41.883499 -37.649105
LeftForeArm -0.171881 -0.000000 93.682804
LeftHand -6.808774 -0.000000 -21.054473
LeftHandThumb1 -26.253704 0.000000 33.147579
RightShoulder -10.934707 -66.959129 -21.253594
RightArm 42.925541 -0.648177 78.942292
RightForeArm 69.556030 -0.000000 109.078477
RightHand 12.351575 -0.000000 -4.633924
RightHandThumb1 -24.326973 -0.000000 -32.862282
LeftUpLeg -32.855717 11.105103 -4.343999
LeftLeg 20.398617 -0.000000 -0.000000
LeftFoot -17.772212 10.759955 -15.760887
LeftToeBase 8.920993 -0.000000 -0.000000
RightUpLeg -35.427738 -5.338416 -9.890171
RightLeg 17.342831 -0.000000 -0.000000
RightFoot -10.781798 3.488905 20.249919
RightToeBase 13.716672 -0.000000 -0.000000
1132
root 3.864486 35.924585 4.081730 -143.454517 -79.556068 171.969754
Spine -31.097273 -15.261062 -1.311693
Head 56.214338 -15.837948 -20.524159
LeftShoulder 13.679460 0.998192 27.060022
LeftArm 104.619045 41.955854 -37.764288
LeftForeArm -0.218666 -0.000000 93.783503
LeftHand -6.805194 -0.000000 -20.870180
LeftHandThumb1 -26.253704 0.000000 33.147579
RightShoulder -10.556610 -66.644507 -21.756880
RightArm 42.803062 0.156626 79.442862
RightForeArm 69.144795 -0.000000 108.481208
RightHand 12.521969 -0.000000 -6.712432
RightHandThumb1 -24.326973 -0.000000 -32.862282
LeftUpLeg -32.840385 11.121477 -4.347787
LeftLeg 20.393592 -0.000000 -0.000000
LeftFoot -17.783202 10.779037 -15.781706
LeftToeBase 8.923907 -0.000000 -0.000000
RightUpLeg -35.432154 -5.291729 -9.907243
RightLeg 17.330153 -0.000000 -0.000000
RightFoot -10.770649 3.488168 20.226889
RightToeBase 13.732088 -0.000000 -0.000000
1133
root 3.867266 35.924716 4.081274 -143.533519 -79.510848 172.033879
Spine -31.092933 -15.319991 -1.326521
Head 56.378264 -15.948092 -20.717977
LeftShoulder 13.585488 1.074693 27.096102
LeftArm 104.514476 42.041378 -37.873497
LeftForeArm -0.338676 -0.000000 93.850442
LeftHand -6.811514 -0.000000 -20.741039
LeftHandThumb1 -26.253704 0.000000 33.147579
RightShoulder -10.155033 -66.347955 -22.239239
RightArm 42.690043 0.962850 79.861266
RightForeArm 68.937532 -0.000000 107.804312
RightHand 12.718600 -0.000000 -8.637562
RightHandThumb1 -24.326973 -0.000000 -32.862282
LeftUpLeg -32.831649 11.124328 -4.342888
LeftLeg 20.408889 -0.000000 -0.000000
LeftFoot -17.798179 10.813336 -15.810315
LeftToeBase 8.937833 -0.000000 -0.000000
RightUpLeg -35.427717 -5.245401 -9.924355
RightLeg 17.318534 -0.000000 -0.000000
RightFoot -10.759466 3.482388 20.229216
RightToeBase 13.740458 -0.000000 -0.000000
1134
root 3.868229 35.925105 4.083274 -143.633449 -79.434265 172.085272
Spine -31.037650 -15.336606 -1.400332
Head 56.570364 -16.126869 -20.906327
LeftShoulder 13.574904 0.834227 27.142727
LeftArm 104.142558 42.360007 -38.167825
LeftForeArm -0.319067 -0.000000 93.932580
LeftHand -6.761252 -0.000000 -20.528798
LeftHandThumb1 -26.253704 0.000000 33.147579
RightShoulder -9.850234 -66.073453 -22.613758
RightArm 42.598144 1.747208 80.226978
RightForeArm 69.024420 -0.000000 107.051283
RightHand 12.891423 -0.000000 -10.757556
RightHandThumb1 -24.326973 -0.000000 -32.862282
LeftUpLeg -32.783920 11.144401 -4.353284
LeftLeg 20.420364 -0.000000 -0.000000
LeftFoot -17.808770 10.847053 -15.802185
LeftToeBase 8.930495 -0.000000 -0.000000
RightUpLeg -35.402319 -5.180100 -9.964287
RightLeg 17.318205 -0.000000 -0.000000
RightFoot -10.741948 3.491592 20.223939
RightToeBase 13.748989 -0.000000 -0.000000
1135
root 3.871520 35.924986 4.083610 -143.724981 -79.385442 172.150237
Spine -31.004325 -15.402928 -1.423955
Head 56.738032 -16.259555 -21.136041
LeftShoulder 13.512333 0.834394 27.111719
LeftArm 104.031635 42.448788 -38.249215
LeftForeArm -0.378185 -0.000000 93.973383
LeftHand -6.778818 0.000000 -20.425319
LeftHandThumb1 -26.253704 0.000000 33.147579
RightShoulder -9.609719 -65.865488 -22.903724
RightArm 42.620912 2.544040 80.499061
RightForeArm 69.035001 0.000000 106.283825
RightHand 12.971257 -0.000000 -13.085654
RightHandThumb1 -24.326973 -0.000000 -32.862282
LeftUpLeg -32.775309 11.155662 -4.352363
LeftLeg 20.458294 -0.000000 -0.000000
LeftFoot -17.824143 10.898116 -15.840533
LeftToeBase 8.918481 -0.000000 -0.000000
RightUpLeg -35.400682 -5.156183 -9.972768
RightLeg 17.326287 -0.000000 -0.000000
RightFoot -10.719604 3.514552 20.208812
RightToeBase 13.733109 -0.000000 -0.000000
1136
root 3.873516 35.924566 4.084302 -143.860640 -79.323580 172.232148
Spine -30.932475 -15.436688 -1.478723
Head 56.888692 -16.433650 -21.318433
LeftShoulder 13.501597 0.905092 27.044532
LeftArm 104.006614 42.435907 -38.247969
LeftForeArm -0.390899 -0.000000 94.014445
LeftHand -6.867322 0.000000 -20.345105
LeftHandThumb1 -26.253704 0.000000 33.147579
RightShoulder -9.320237 -65.626092 -23.204081
RightArm 42.539171 3.356899 80.757470
RightForeArm 69.045918 -0.000000 105.528062
RightHand 12.978668 -0.000000 -15.420938
RightHandThumb1 -24.326973 -0.000000 -32.862282
LeftUpLeg -32.733331 11.197031 -4.357644
LeftLeg 20.482424 -0.000000 -0.000000
LeftFoot -17.836831 10.898370 -15.829032
LeftToeBase 8.916612 -0.000000 -0.000000
RightUpLeg -35.370353 -5.106641 -9.996015
RightLeg 17.330909 -0.000000 -0.000000
RightFoot -10.702831 3.537648 20.215293
RightToeBase 13.740343 -0.000000 -0.000000
1137
root 3.878273 35.924870 4.080470 -143.947154 -79.325347 172.303121
Spine -30.901103 -15.510900 -1.506612
Head 57.052716 -16.656916 -21.526815
LeftShoulder 13.472839 1.029671 26.970179
LeftArm 104.051900 42.397424 -38.212936
LeftForeArm -0.393453 -0.000000 94.020680
LeftHand -6.931511 -0.000000 -20.310353
LeftHandThumb1 -26.253704 0.000000 33.147579
RightShoulder -9.096731 -65.450830 -23.434511
RightArm 42.537231 4.192668 81.063993
RightForeArm 68.950534 -0.000000 104.665949
RightHand 12.968106 -0.000000 -17.316592
RightHandThumb1 -24.326973 -0.000000 -32.862282
LeftUpLeg -32.743688 11.195764 -4.330181
LeftLeg 20.520996 -0.000000 -0.000000
LeftFoot -17.828979 10.896924 -15.838439
LeftToeBase 8.877900 -0.000000 -0.000000
RightUpLeg -35.359005 -5.123953 -9.963367
RightLeg 17.320723 -0.000000 -0.000000
RightFoot -10.676807 3.567540 20.227551
RightToeBase 13.725200 -0.000000 -0.000000
